<svg width="68" height="68" viewBox="0 0 68 68" fill="none" xmlns="http://www.w3.org/2000/svg">
<path d="M0.666668 20.6667V59.0967C0.666668 59.0967 16.07 58.5234 34 67.3334C51.93 58.5234 67.3333 59.0967 67.3333 59.0967V20.6667C67.3333 20.6667 49.1533 20.6667 34 28.9034C18.8467 20.6667 0.666668 20.6667 0.666668 20.6667Z" fill="#2F584E"/>
<path d="M34 20.6667C39.5228 20.6667 44 16.1896 44 10.6667C44 5.1439 39.5228 0.666748 34 0.666748C28.4772 0.666748 24 5.1439 24 10.6667C24 16.1896 28.4772 20.6667 34 20.6667Z" fill="#FF9257"/>
<path d="M31.8947 38.1737C32.3932 36.8777 32.6424 36.2297 33.0022 36.0417C33.3141 35.8788 33.6859 35.8788 33.9978 36.0417C34.3576 36.2297 34.6068 36.8777 35.1053 38.1737L35.8137 40.0157C36.1381 40.859 36.3002 41.2806 36.5524 41.6352C36.7759 41.9495 37.0505 42.2241 37.3648 42.4476C37.7194 42.6998 38.141 42.8619 38.9843 43.1863L40.8263 43.8947C42.1223 44.3932 42.7703 44.6424 42.9583 45.0022C43.1212 45.3141 43.1212 45.6859 42.9583 45.9978C42.7703 46.3576 42.1223 46.6068 40.8263 47.1053L38.9843 47.8137C38.141 48.1381 37.7194 48.3002 37.3648 48.5524C37.0505 48.7759 36.7759 49.0505 36.5524 49.3648C36.3002 49.7194 36.1381 50.141 35.8138 50.9843L35.1053 52.8263C34.6068 54.1223 34.3576 54.7703 33.9978 54.9583C33.6859 55.1212 33.3141 55.1212 33.0022 54.9583C32.6424 54.7703 32.3932 54.1223 31.8947 52.8263L31.1863 50.9843C30.8619 50.141 30.6998 49.7194 30.4476 49.3648C30.2241 49.0505 29.9495 48.7759 29.6352 48.5524C29.2806 48.3002 28.859 48.1381 28.0157 47.8138L26.1737 47.1053C24.8777 46.6068 24.2297 46.3576 24.0417 45.9978C23.8788 45.6859 23.8788 45.3141 24.0417 45.0022C24.2297 44.6424 24.8777 44.3932 26.1737 43.8947L28.0157 43.1863C28.859 42.8619 29.2806 42.6998 29.6352 42.4476C29.9495 42.2241 30.2241 41.9495 30.4476 41.6352C30.6998 41.2806 30.8619 40.859 31.1863 40.0157L31.8947 38.1737Z" fill="white"/>
</svg>
