<svg width="736" height="1080" viewBox="0 0 736 1080" fill="none" xmlns="http://www.w3.org/2000/svg">
<path d="M0 0H736V1080H0V0Z" fill="#F1F6FE"/>
<mask id="mask0_22_870" style="mask-type:alpha" maskUnits="userSpaceOnUse" x="0" y="0" width="736" height="1080">
<path d="M0 0H736V1080H0V0Z" fill="#F1F6FE"/>
</mask>
<g mask="url(#mask0_22_870)">
<path d="M46.1444 410.37V417.627M46.1444 957.605V964.972M57.5779 37.9053C57.5779 63.2581 37.0775 83.8106 11.7889 83.8106C-13.4996 83.8106 -34 63.2581 -34 37.9053C-34 12.5525 -13.4996 -8 11.7889 -8C37.0775 -8 57.5779 12.5525 57.5779 37.9053ZM57.5779 585.14C57.5779 610.493 37.0775 631.046 11.7889 631.046C-13.4996 631.046 -34 610.493 -34 585.14C-34 559.788 -13.4996 539.235 11.7889 539.235C37.0775 539.235 57.5779 559.788 57.5779 585.14ZM57.5779 311.468C57.5779 336.821 37.0775 357.373 11.7889 357.373C-13.4996 357.373 -34 336.821 -34 311.468C-34 286.115 -13.4996 265.563 11.7889 265.563C37.0775 265.563 57.5779 286.115 57.5779 311.468ZM57.5779 858.648C57.5779 883.97 37.0775 904.498 11.7889 904.498C-13.4996 904.498 -34 883.97 -34 858.648C-34 833.325 -13.4996 812.798 11.7889 812.798C37.0775 812.798 57.5779 833.325 57.5779 858.648ZM57.5779 174.742C57.5779 200.064 37.0775 220.592 11.7889 220.592C-13.4996 220.592 -34 200.064 -34 174.742C-34 149.419 -13.4996 128.891 11.7889 128.891C37.0775 128.891 57.5779 149.419 57.5779 174.742ZM57.5779 721.977C57.5779 747.299 37.0775 767.827 11.7889 767.827C-13.4996 767.827 -34 747.299 -34 721.977C-34 696.654 -13.4996 676.126 11.7889 676.126C37.0775 676.126 57.5779 696.654 57.5779 721.977ZM57.5779 448.304C57.5779 473.627 37.0775 494.154 11.7889 494.154C-13.4996 494.154 -34 473.627 -34 448.304C-34 422.982 -13.4996 402.454 11.7889 402.454C37.0775 402.454 57.5779 422.982 57.5779 448.304ZM57.5779 995.484C57.5779 1020.84 37.0775 1041.39 11.7889 1041.39C-13.4996 1041.39 -34 1020.84 -34 995.484C-34 970.131 -13.4996 949.579 11.7889 949.579C37.0775 949.579 57.5779 970.131 57.5779 995.484ZM57.5779 106.406C57.5779 131.759 37.0775 152.311 11.7889 152.311C-13.4996 152.311 -34 131.759 -34 106.406C-34 81.0531 -13.4996 60.5006 11.7889 60.5006C37.0775 60.5006 57.5779 81.0531 57.5779 106.406ZM57.5779 653.586C57.5779 678.908 37.0775 699.436 11.7889 699.436C-13.4996 699.436 -34 678.908 -34 653.586C-34 628.264 -13.4996 607.736 11.7889 607.736C37.0775 607.736 57.5779 628.264 57.5779 653.586ZM57.5779 379.913C57.5779 405.236 37.0775 425.764 11.7889 425.764C-13.4996 425.764 -34 405.236 -34 379.913C-34 354.591 -13.4996 334.063 11.7889 334.063C37.0775 334.063 57.5779 354.591 57.5779 379.913ZM57.5779 927.148C57.5779 952.471 37.0775 972.999 11.7889 972.999C-13.4996 972.999 -34 952.471 -34 927.148C-34 901.826 -13.4996 881.298 11.7889 881.298C37.0775 881.298 57.5779 901.826 57.5779 927.148ZM57.5779 243.242C57.5779 268.565 37.0775 289.092 11.7889 289.092C-13.4996 289.092 -34 268.565 -34 243.242C-34 217.92 -13.4996 197.392 11.7889 197.392C37.0775 197.392 57.5779 217.92 57.5779 243.242ZM57.5779 790.422C57.5779 815.775 37.0775 836.328 11.7889 836.328C-13.4996 836.328 -34 815.775 -34 790.422C-34 765.069 -13.4996 744.517 11.7889 744.517C37.0775 744.517 57.5779 765.069 57.5779 790.422ZM57.5779 516.695C57.5779 542.017 37.0775 562.545 11.7889 562.545C-13.4996 562.545 -34 542.017 -34 516.695C-34 491.372 -13.4996 470.844 11.7889 470.844C37.0775 470.844 57.5779 491.372 57.5779 516.695ZM57.5779 1063.93C57.5779 1089.25 37.0775 1109.78 11.7889 1109.78C-13.4996 1109.78 -34 1089.25 -34 1063.93C-34 1038.61 -13.4996 1018.08 11.7889 1018.08C37.0775 1018.08 57.5779 1038.61 57.5779 1063.93ZM608.254 37.9053C608.254 63.2581 587.729 83.8106 562.41 83.8106C537.092 83.8106 516.566 63.2581 516.566 37.9053C516.566 12.5525 537.092 -8 562.41 -8C587.729 -8 608.254 12.5525 608.254 37.9053ZM608.254 585.14C608.254 610.493 587.729 631.046 562.41 631.046C537.092 631.046 516.566 610.493 516.566 585.14C516.566 559.788 537.092 539.235 562.41 539.235C587.729 539.235 608.254 559.788 608.254 585.14ZM608.254 311.468C608.254 336.821 587.729 357.373 562.41 357.373C537.092 357.373 516.566 336.821 516.566 311.468C516.566 286.115 537.092 265.563 562.41 265.563C587.729 265.563 608.254 286.115 608.254 311.468ZM608.254 858.648C608.254 883.97 587.729 904.498 562.41 904.498C537.092 904.498 516.566 883.97 516.566 858.648C516.566 833.325 537.092 812.798 562.41 812.798C587.729 812.798 608.254 833.325 608.254 858.648ZM608.254 174.742C608.254 200.064 587.729 220.592 562.41 220.592C537.092 220.592 516.566 200.064 516.566 174.742C516.566 149.419 537.092 128.891 562.41 128.891C587.729 128.891 608.254 149.419 608.254 174.742ZM608.254 721.977C608.254 747.299 587.729 767.827 562.41 767.827C537.092 767.827 516.566 747.299 516.566 721.977C516.566 696.654 537.092 676.126 562.41 676.126C587.729 676.126 608.254 696.654 608.254 721.977ZM608.254 448.304C608.254 473.627 587.729 494.154 562.41 494.154C537.092 494.154 516.566 473.627 516.566 448.304C516.566 422.982 537.092 402.454 562.41 402.454C587.729 402.454 608.254 422.982 608.254 448.304ZM608.254 995.484C608.254 1020.84 587.729 1041.39 562.41 1041.39C537.092 1041.39 516.566 1020.84 516.566 995.484C516.566 970.131 537.092 949.579 562.41 949.579C587.729 949.579 608.254 970.131 608.254 995.484ZM608.254 106.406C608.254 131.759 587.729 152.311 562.41 152.311C537.092 152.311 516.566 131.759 516.566 106.406C516.566 81.0531 537.092 60.5006 562.41 60.5006C587.729 60.5006 608.254 81.0531 608.254 106.406ZM608.254 653.586C608.254 678.908 587.729 699.436 562.41 699.436C537.092 699.436 516.566 678.908 516.566 653.586C516.566 628.264 537.092 607.736 562.41 607.736C587.729 607.736 608.254 628.264 608.254 653.586ZM608.254 379.913C608.254 405.236 587.729 425.764 562.41 425.764C537.092 425.764 516.566 405.236 516.566 379.913C516.566 354.591 537.092 334.063 562.41 334.063C587.729 334.063 608.254 354.591 608.254 379.913ZM608.254 927.148C608.254 952.471 587.729 972.999 562.41 972.999C537.092 972.999 516.566 952.471 516.566 927.148C516.566 901.826 537.092 881.298 562.41 881.298C587.729 881.298 608.254 901.826 608.254 927.148ZM608.254 243.242C608.254 268.565 587.729 289.092 562.41 289.092C537.092 289.092 516.566 268.565 516.566 243.242C516.566 217.92 537.092 197.392 562.41 197.392C587.729 197.392 608.254 217.92 608.254 243.242ZM608.254 790.422C608.254 815.775 587.729 836.328 562.41 836.328C537.092 836.328 516.566 815.775 516.566 790.422C516.566 765.069 537.092 744.517 562.41 744.517C587.729 744.517 608.254 765.069 608.254 790.422ZM608.254 516.695C608.254 542.017 587.729 562.545 562.41 562.545C537.092 562.545 516.566 542.017 516.566 516.695C516.566 491.372 537.092 470.844 562.41 470.844C587.729 470.844 608.254 491.372 608.254 516.695ZM608.254 1063.93C608.254 1089.25 587.729 1109.78 562.41 1109.78C537.092 1109.78 516.566 1089.25 516.566 1063.93C516.566 1038.61 537.092 1018.08 562.41 1018.08C587.729 1018.08 608.254 1038.61 608.254 1063.93ZM332.971 38.0702C332.971 63.3927 312.471 83.9205 287.182 83.9205C261.894 83.9205 241.393 63.3927 241.393 38.0702C241.393 12.7478 261.894 -7.78009 287.182 -7.78009C312.471 -7.78009 332.971 12.7478 332.971 38.0702ZM332.971 585.305C332.971 610.628 312.471 631.156 287.182 631.156C261.894 631.156 241.393 610.628 241.393 585.305C241.393 559.983 261.894 539.455 287.182 539.455C312.471 539.455 332.971 559.983 332.971 585.305ZM332.971 311.578C332.971 336.931 312.471 357.483 287.182 357.483C261.894 357.483 241.393 336.931 241.393 311.578C241.393 286.225 261.894 265.672 287.182 265.672C312.471 265.672 332.971 286.225 332.971 311.578ZM332.971 858.758C332.971 884.08 312.471 904.608 287.182 904.608C261.894 904.608 241.393 884.08 241.393 858.758C241.393 833.435 261.894 812.908 287.182 812.908C312.471 812.908 332.971 833.435 332.971 858.758ZM332.971 174.852C332.971 200.174 312.471 220.702 287.182 220.702C261.894 220.702 241.393 200.174 241.393 174.852C241.393 149.529 261.894 129.001 287.182 129.001C312.471 129.001 332.971 149.529 332.971 174.852ZM332.971 722.087C332.971 747.409 312.471 767.937 287.182 767.937C261.894 767.937 241.393 747.409 241.393 722.087C241.393 696.764 261.894 676.236 287.182 676.236C312.471 676.236 332.971 696.764 332.971 722.087ZM332.971 448.414C332.971 473.736 312.471 494.264 287.182 494.264C261.894 494.264 241.393 473.736 241.393 448.414C241.393 423.092 261.894 402.564 287.182 402.564C312.471 402.564 332.971 423.092 332.971 448.414ZM332.971 995.594C332.971 1020.95 312.471 1041.5 287.182 1041.5C261.894 1041.5 241.393 1020.95 241.393 995.594C241.393 970.241 261.894 949.689 287.182 949.689C312.471 949.689 332.971 970.241 332.971 995.594ZM332.971 106.516C332.971 131.869 312.471 152.421 287.182 152.421C261.894 152.421 241.393 131.869 241.393 106.516C241.393 81.163 261.894 60.6105 287.182 60.6105C312.471 60.6105 332.971 81.163 332.971 106.516ZM332.971 653.696C332.971 679.018 312.471 699.546 287.182 699.546C261.894 699.546 241.393 679.018 241.393 653.696C241.393 628.373 261.894 607.846 287.182 607.846C312.471 607.846 332.971 628.373 332.971 653.696ZM332.971 380.023C332.971 405.346 312.471 425.874 287.182 425.874C261.894 425.874 241.393 405.346 241.393 380.023C241.393 354.701 261.894 334.173 287.182 334.173C312.471 334.173 332.971 354.701 332.971 380.023ZM332.971 927.258C332.971 952.581 312.471 973.109 287.182 973.109C261.894 973.109 241.393 952.581 241.393 927.258C241.393 901.936 261.894 881.408 287.182 881.408C312.471 881.408 332.971 901.936 332.971 927.258ZM332.971 243.352C332.971 268.675 312.471 289.202 287.182 289.202C261.894 289.202 241.393 268.675 241.393 243.352C241.393 218.03 261.894 197.502 287.182 197.502C312.471 197.502 332.971 218.03 332.971 243.352ZM332.971 790.532C332.971 815.885 312.471 836.437 287.182 836.437C261.894 836.437 241.393 815.885 241.393 790.532C241.393 765.179 261.894 744.627 287.182 744.627C312.471 744.627 332.971 765.179 332.971 790.532ZM332.971 516.86C332.971 542.212 312.471 562.765 287.182 562.765C261.894 562.765 241.393 542.212 241.393 516.86C241.393 491.507 261.894 470.954 287.182 470.954C312.471 470.954 332.971 491.507 332.971 516.86ZM332.971 1064.09C332.971 1089.45 312.471 1110 287.182 1110C261.894 1110 241.393 1089.45 241.393 1064.09C241.393 1038.74 261.894 1018.19 287.182 1018.19C312.471 1018.19 332.971 1038.74 332.971 1064.09ZM883.538 38.0702C883.538 63.3927 863.013 83.9205 837.694 83.9205C812.375 83.9205 791.85 63.3927 791.85 38.0702C791.85 12.7478 812.375 -7.78009 837.694 -7.78009C863.013 -7.78009 883.538 12.7478 883.538 38.0702ZM883.538 585.305C883.538 610.628 863.013 631.156 837.694 631.156C812.375 631.156 791.85 610.628 791.85 585.305C791.85 559.983 812.375 539.455 837.694 539.455C863.013 539.455 883.538 559.983 883.538 585.305ZM883.538 311.578C883.538 336.931 863.013 357.483 837.694 357.483C812.375 357.483 791.85 336.931 791.85 311.578C791.85 286.225 812.375 265.672 837.694 265.672C863.013 265.672 883.538 286.225 883.538 311.578ZM883.538 858.758C883.538 884.08 863.013 904.608 837.694 904.608C812.375 904.608 791.85 884.08 791.85 858.758C791.85 833.435 812.375 812.908 837.694 812.908C863.013 812.908 883.538 833.435 883.538 858.758ZM883.538 174.852C883.538 200.174 863.013 220.702 837.694 220.702C812.375 220.702 791.85 200.174 791.85 174.852C791.85 149.529 812.375 129.001 837.694 129.001C863.013 129.001 883.538 149.529 883.538 174.852ZM883.538 722.087C883.538 747.409 863.013 767.937 837.694 767.937C812.375 767.937 791.85 747.409 791.85 722.087C791.85 696.764 812.375 676.236 837.694 676.236C863.013 676.236 883.538 696.764 883.538 722.087ZM883.538 448.414C883.538 473.736 863.013 494.264 837.694 494.264C812.375 494.264 791.85 473.736 791.85 448.414C791.85 423.092 812.375 402.564 837.694 402.564C863.013 402.564 883.538 423.092 883.538 448.414ZM883.538 995.594C883.538 1020.95 863.013 1041.5 837.694 1041.5C812.375 1041.5 791.85 1020.95 791.85 995.594C791.85 970.241 812.375 949.689 837.694 949.689C863.013 949.689 883.538 970.241 883.538 995.594ZM883.538 106.516C883.538 131.869 863.013 152.421 837.694 152.421C812.375 152.421 791.85 131.869 791.85 106.516C791.85 81.163 812.375 60.6105 837.694 60.6105C863.013 60.6105 883.538 81.163 883.538 106.516ZM883.538 653.696C883.538 679.018 863.013 699.546 837.694 699.546C812.375 699.546 791.85 679.018 791.85 653.696C791.85 628.373 812.375 607.846 837.694 607.846C863.013 607.846 883.538 628.373 883.538 653.696ZM883.538 380.023C883.538 405.346 863.013 425.874 837.694 425.874C812.375 425.874 791.85 405.346 791.85 380.023C791.85 354.701 812.375 334.173 837.694 334.173C863.013 334.173 883.538 354.701 883.538 380.023ZM883.538 927.258C883.538 952.581 863.013 973.109 837.694 973.109C812.375 973.109 791.85 952.581 791.85 927.258C791.85 901.936 812.375 881.408 837.694 881.408C863.013 881.408 883.538 901.936 883.538 927.258ZM883.538 243.352C883.538 268.675 863.013 289.202 837.694 289.202C812.375 289.202 791.85 268.675 791.85 243.352C791.85 218.03 812.375 197.502 837.694 197.502C863.013 197.502 883.538 218.03 883.538 243.352ZM883.538 790.532C883.538 815.885 863.013 836.437 837.694 836.437C812.375 836.437 791.85 815.885 791.85 790.532C791.85 765.179 812.375 744.627 837.694 744.627C863.013 744.627 883.538 765.179 883.538 790.532ZM883.538 516.86C883.538 542.212 863.013 562.765 837.694 562.765C812.375 562.765 791.85 542.212 791.85 516.86C791.85 491.507 812.375 470.954 837.694 470.954C863.013 470.954 883.538 491.507 883.538 516.86ZM883.538 1064.09C883.538 1089.45 863.013 1110 837.694 1110C812.375 1110 791.85 1089.45 791.85 1064.09C791.85 1038.74 812.375 1018.19 837.694 1018.19C863.013 1018.19 883.538 1038.74 883.538 1064.09ZM195.219 37.9053C195.219 63.2581 174.719 83.8106 149.431 83.8106C124.142 83.8106 103.642 63.2581 103.642 37.9053C103.642 12.5525 124.142 -8 149.431 -8C174.719 -8 195.219 12.5525 195.219 37.9053ZM195.219 585.14C195.219 610.493 174.719 631.046 149.431 631.046C124.142 631.046 103.642 610.493 103.642 585.14C103.642 559.788 124.142 539.235 149.431 539.235C174.719 539.235 195.219 559.788 195.219 585.14ZM195.219 311.468C195.219 336.821 174.719 357.373 149.431 357.373C124.142 357.373 103.642 336.821 103.642 311.468C103.642 286.115 124.142 265.563 149.431 265.563C174.719 265.563 195.219 286.115 195.219 311.468ZM195.219 858.648C195.219 883.97 174.719 904.498 149.431 904.498C124.142 904.498 103.642 883.97 103.642 858.648C103.642 833.325 124.142 812.798 149.431 812.798C174.719 812.798 195.219 833.325 195.219 858.648ZM195.219 174.742C195.219 200.064 174.719 220.592 149.431 220.592C124.142 220.592 103.642 200.064 103.642 174.742C103.642 149.419 124.142 128.891 149.431 128.891C174.719 128.891 195.219 149.419 195.219 174.742ZM195.219 721.977C195.219 747.299 174.719 767.827 149.431 767.827C124.142 767.827 103.642 747.299 103.642 721.977C103.642 696.654 124.142 676.126 149.431 676.126C174.719 676.126 195.219 696.654 195.219 721.977ZM195.219 448.304C195.219 473.627 174.719 494.154 149.431 494.154C124.142 494.154 103.642 473.627 103.642 448.304C103.642 422.982 124.142 402.454 149.431 402.454C174.719 402.454 195.219 422.982 195.219 448.304ZM195.219 995.484C195.219 1020.84 174.719 1041.39 149.431 1041.39C124.142 1041.39 103.642 1020.84 103.642 995.484C103.642 970.131 124.142 949.579 149.431 949.579C174.719 949.579 195.219 970.131 195.219 995.484ZM195.219 106.406C195.219 131.759 174.719 152.311 149.431 152.311C124.142 152.311 103.642 131.759 103.642 106.406C103.642 81.0531 124.142 60.5006 149.431 60.5006C174.719 60.5006 195.219 81.0531 195.219 106.406ZM195.219 653.586C195.219 678.908 174.719 699.436 149.431 699.436C124.142 699.436 103.642 678.908 103.642 653.586C103.642 628.264 124.142 607.736 149.431 607.736C174.719 607.736 195.219 628.264 195.219 653.586ZM195.219 379.913C195.219 405.236 174.719 425.764 149.431 425.764C124.142 425.764 103.642 405.236 103.642 379.913C103.642 354.591 124.142 334.063 149.431 334.063C174.719 334.063 195.219 354.591 195.219 379.913ZM195.219 927.148C195.219 952.471 174.719 972.999 149.431 972.999C124.142 972.999 103.642 952.471 103.642 927.148C103.642 901.826 124.142 881.298 149.431 881.298C174.719 881.298 195.219 901.826 195.219 927.148ZM195.219 243.242C195.219 268.565 174.719 289.092 149.431 289.092C124.142 289.092 103.642 268.565 103.642 243.242C103.642 217.92 124.142 197.392 149.431 197.392C174.719 197.392 195.219 217.92 195.219 243.242ZM195.219 790.422C195.219 815.775 174.719 836.328 149.431 836.328C124.142 836.328 103.642 815.775 103.642 790.422C103.642 765.069 124.142 744.517 149.431 744.517C174.719 744.517 195.219 765.069 195.219 790.422ZM195.219 516.695C195.219 542.017 174.719 562.545 149.431 562.545C124.142 562.545 103.642 542.017 103.642 516.695C103.642 491.372 124.142 470.844 149.431 470.844C174.719 470.844 195.219 491.372 195.219 516.695ZM195.219 1063.93C195.219 1089.25 174.719 1109.78 149.431 1109.78C124.142 1109.78 103.642 1089.25 103.642 1063.93C103.642 1038.61 124.142 1018.08 149.431 1018.08C174.719 1018.08 195.219 1038.61 195.219 1063.93ZM745.676 37.9053C745.676 63.2581 725.2 83.8106 699.942 83.8106C674.684 83.8106 654.208 63.2581 654.208 37.9053C654.208 12.5525 674.684 -8 699.942 -8C725.2 -8 745.676 12.5525 745.676 37.9053ZM745.676 585.14C745.676 610.493 725.2 631.046 699.942 631.046C674.684 631.046 654.208 610.493 654.208 585.14C654.208 559.788 674.684 539.235 699.942 539.235C725.2 539.235 745.676 559.788 745.676 585.14ZM745.676 311.468C745.676 336.821 725.2 357.373 699.942 357.373C674.684 357.373 654.208 336.821 654.208 311.468C654.208 286.115 674.684 265.563 699.942 265.563C725.2 265.563 745.676 286.115 745.676 311.468ZM745.676 858.648C745.676 883.97 725.2 904.498 699.942 904.498C674.684 904.498 654.208 883.97 654.208 858.648C654.208 833.325 674.684 812.798 699.942 812.798C725.2 812.798 745.676 833.325 745.676 858.648ZM745.676 174.742C745.676 200.064 725.2 220.592 699.942 220.592C674.684 220.592 654.208 200.064 654.208 174.742C654.208 149.419 674.684 128.891 699.942 128.891C725.2 128.891 745.676 149.419 745.676 174.742ZM745.676 721.977C745.676 747.299 725.2 767.827 699.942 767.827C674.684 767.827 654.208 747.299 654.208 721.977C654.208 696.654 674.684 676.126 699.942 676.126C725.2 676.126 745.676 696.654 745.676 721.977ZM745.676 448.304C745.676 473.627 725.2 494.154 699.942 494.154C674.684 494.154 654.208 473.627 654.208 448.304C654.208 422.982 674.684 402.454 699.942 402.454C725.2 402.454 745.676 422.982 745.676 448.304ZM745.676 995.484C745.676 1020.84 725.2 1041.39 699.942 1041.39C674.684 1041.39 654.208 1020.84 654.208 995.484C654.208 970.131 674.684 949.579 699.942 949.579C725.2 949.579 745.676 970.131 745.676 995.484ZM745.676 106.406C745.676 131.759 725.2 152.311 699.942 152.311C674.684 152.311 654.208 131.759 654.208 106.406C654.208 81.0531 674.684 60.5006 699.942 60.5006C725.2 60.5006 745.676 81.0531 745.676 106.406ZM745.676 653.586C745.676 678.908 725.2 699.436 699.942 699.436C674.684 699.436 654.208 678.908 654.208 653.586C654.208 628.264 674.684 607.736 699.942 607.736C725.2 607.736 745.676 628.264 745.676 653.586ZM745.676 379.913C745.676 405.236 725.2 425.764 699.942 425.764C674.684 425.764 654.208 405.236 654.208 379.913C654.208 354.591 674.684 334.063 699.942 334.063C725.2 334.063 745.676 354.591 745.676 379.913ZM745.676 927.148C745.676 952.471 725.2 972.999 699.942 972.999C674.684 972.999 654.208 952.471 654.208 927.148C654.208 901.826 674.684 881.298 699.942 881.298C725.2 881.298 745.676 901.826 745.676 927.148ZM745.676 243.242C745.676 268.565 725.2 289.092 699.942 289.092C674.684 289.092 654.208 268.565 654.208 243.242C654.208 217.92 674.684 197.392 699.942 197.392C725.2 197.392 745.676 217.92 745.676 243.242ZM745.676 790.422C745.676 815.775 725.2 836.328 699.942 836.328C674.684 836.328 654.208 815.775 654.208 790.422C654.208 765.069 674.684 744.517 699.942 744.517C725.2 744.517 745.676 765.069 745.676 790.422ZM745.676 516.695C745.676 542.017 725.2 562.545 699.942 562.545C674.684 562.545 654.208 542.017 654.208 516.695C654.208 491.372 674.684 470.844 699.942 470.844C725.2 470.844 745.676 491.372 745.676 516.695ZM745.676 1063.93C745.676 1089.25 725.2 1109.78 699.942 1109.78C674.684 1109.78 654.208 1089.25 654.208 1063.93C654.208 1038.61 674.684 1018.08 699.942 1018.08C725.2 1018.08 745.676 1038.61 745.676 1063.93ZM470.613 38.0702C470.613 63.3927 450.088 83.9205 424.769 83.9205C399.45 83.9205 378.925 63.3927 378.925 38.0702C378.925 12.7478 399.45 -7.78009 424.769 -7.78009C450.088 -7.78009 470.613 12.7478 470.613 38.0702ZM470.613 585.305C470.613 610.628 450.088 631.156 424.769 631.156C399.45 631.156 378.925 610.628 378.925 585.305C378.925 559.983 399.45 539.455 424.769 539.455C450.088 539.455 470.613 559.983 470.613 585.305ZM470.613 311.578C470.613 336.931 450.088 357.483 424.769 357.483C399.45 357.483 378.925 336.931 378.925 311.578C378.925 286.225 399.45 265.672 424.769 265.672C450.088 265.672 470.613 286.225 470.613 311.578ZM470.613 858.758C470.613 884.08 450.088 904.608 424.769 904.608C399.45 904.608 378.925 884.08 378.925 858.758C378.925 833.435 399.45 812.908 424.769 812.908C450.088 812.908 470.613 833.435 470.613 858.758ZM470.613 174.852C470.613 200.174 450.088 220.702 424.769 220.702C399.45 220.702 378.925 200.174 378.925 174.852C378.925 149.529 399.45 129.001 424.769 129.001C450.088 129.001 470.613 149.529 470.613 174.852ZM470.613 722.087C470.613 747.409 450.088 767.937 424.769 767.937C399.45 767.937 378.925 747.409 378.925 722.087C378.925 696.764 399.45 676.236 424.769 676.236C450.088 676.236 470.613 696.764 470.613 722.087ZM470.613 448.414C470.613 473.736 450.088 494.264 424.769 494.264C399.45 494.264 378.925 473.736 378.925 448.414C378.925 423.092 399.45 402.564 424.769 402.564C450.088 402.564 470.613 423.092 470.613 448.414ZM470.613 995.594C470.613 1020.95 450.088 1041.5 424.769 1041.5C399.45 1041.5 378.925 1020.95 378.925 995.594C378.925 970.241 399.45 949.689 424.769 949.689C450.088 949.689 470.613 970.241 470.613 995.594ZM470.613 106.516C470.613 131.869 450.088 152.421 424.769 152.421C399.45 152.421 378.925 131.869 378.925 106.516C378.925 81.163 399.45 60.6105 424.769 60.6105C450.088 60.6105 470.613 81.163 470.613 106.516ZM470.613 653.696C470.613 679.018 450.088 699.546 424.769 699.546C399.45 699.546 378.925 679.018 378.925 653.696C378.925 628.373 399.45 607.846 424.769 607.846C450.088 607.846 470.613 628.373 470.613 653.696ZM470.613 380.023C470.613 405.346 450.088 425.874 424.769 425.874C399.45 425.874 378.925 405.346 378.925 380.023C378.925 354.701 399.45 334.173 424.769 334.173C450.088 334.173 470.613 354.701 470.613 380.023ZM470.613 927.258C470.613 952.581 450.088 973.109 424.769 973.109C399.45 973.109 378.925 952.581 378.925 927.258C378.925 901.936 399.45 881.408 424.769 881.408C450.088 881.408 470.613 901.936 470.613 927.258ZM470.613 243.352C470.613 268.675 450.088 289.202 424.769 289.202C399.45 289.202 378.925 268.675 378.925 243.352C378.925 218.03 399.45 197.502 424.769 197.502C450.088 197.502 470.613 218.03 470.613 243.352ZM470.613 790.532C470.613 815.885 450.088 836.437 424.769 836.437C399.45 836.437 378.925 815.885 378.925 790.532C378.925 765.179 399.45 744.627 424.769 744.627C450.088 744.627 470.613 765.179 470.613 790.532ZM470.613 516.86C470.613 542.212 450.088 562.765 424.769 562.765C399.45 562.765 378.925 542.212 378.925 516.86C378.925 491.507 399.45 470.954 424.769 470.954C450.088 470.954 470.613 491.507 470.613 516.86ZM470.613 1064.09C470.613 1089.45 450.088 1110 424.769 1110C399.45 1110 378.925 1089.45 378.925 1064.09C378.925 1038.74 399.45 1018.19 424.769 1018.19C450.088 1018.19 470.613 1038.74 470.613 1064.09ZM1021.07 38.0702C1021.07 63.3927 1000.54 83.9205 975.225 83.9205C949.906 83.9205 929.381 63.3927 929.381 38.0702C929.381 12.7478 949.906 -7.78009 975.225 -7.78009C1000.54 -7.78009 1021.07 12.7478 1021.07 38.0702ZM1021.07 585.305C1021.07 610.628 1000.54 631.156 975.225 631.156C949.906 631.156 929.381 610.628 929.381 585.305C929.381 559.983 949.906 539.455 975.225 539.455C1000.54 539.455 1021.07 559.983 1021.07 585.305ZM1021.07 311.578C1021.07 336.931 1000.54 357.483 975.225 357.483C949.906 357.483 929.381 336.931 929.381 311.578C929.381 286.225 949.906 265.672 975.225 265.672C1000.54 265.672 1021.07 286.225 1021.07 311.578ZM1021.07 858.758C1021.07 884.08 1000.54 904.608 975.225 904.608C949.906 904.608 929.381 884.08 929.381 858.758C929.381 833.435 949.906 812.908 975.225 812.908C1000.54 812.908 1021.07 833.435 1021.07 858.758ZM1021.07 174.852C1021.07 200.174 1000.54 220.702 975.225 220.702C949.906 220.702 929.381 200.174 929.381 174.852C929.381 149.529 949.906 129.001 975.225 129.001C1000.54 129.001 1021.07 149.529 1021.07 174.852ZM1021.07 722.087C1021.07 747.409 1000.54 767.937 975.225 767.937C949.906 767.937 929.381 747.409 929.381 722.087C929.381 696.764 949.906 676.236 975.225 676.236C1000.54 676.236 1021.07 696.764 1021.07 722.087ZM1021.07 448.414C1021.07 473.736 1000.54 494.264 975.225 494.264C949.906 494.264 929.381 473.736 929.381 448.414C929.381 423.092 949.906 402.564 975.225 402.564C1000.54 402.564 1021.07 423.092 1021.07 448.414ZM1021.07 995.594C1021.07 1020.95 1000.54 1041.5 975.225 1041.5C949.906 1041.5 929.381 1020.95 929.381 995.594C929.381 970.241 949.906 949.689 975.225 949.689C1000.54 949.689 1021.07 970.241 1021.07 995.594ZM1021.07 106.516C1021.07 131.869 1000.54 152.421 975.225 152.421C949.906 152.421 929.381 131.869 929.381 106.516C929.381 81.163 949.906 60.6105 975.225 60.6105C1000.54 60.6105 1021.07 81.163 1021.07 106.516ZM1021.07 653.696C1021.07 679.018 1000.54 699.546 975.225 699.546C949.906 699.546 929.381 679.018 929.381 653.696C929.381 628.373 949.906 607.846 975.225 607.846C1000.54 607.846 1021.07 628.373 1021.07 653.696ZM1021.07 380.023C1021.07 405.346 1000.54 425.874 975.225 425.874C949.906 425.874 929.381 405.346 929.381 380.023C929.381 354.701 949.906 334.173 975.225 334.173C1000.54 334.173 1021.07 354.701 1021.07 380.023ZM1021.07 927.258C1021.07 952.581 1000.54 973.109 975.225 973.109C949.906 973.109 929.381 952.581 929.381 927.258C929.381 901.936 949.906 881.408 975.225 881.408C1000.54 881.408 1021.07 901.936 1021.07 927.258ZM1021.07 243.352C1021.07 268.675 1000.54 289.202 975.225 289.202C949.906 289.202 929.381 268.675 929.381 243.352C929.381 218.03 949.906 197.502 975.225 197.502C1000.54 197.502 1021.07 218.03 1021.07 243.352ZM1021.07 790.532C1021.07 815.885 1000.54 836.437 975.225 836.437C949.906 836.437 929.381 815.885 929.381 790.532C929.381 765.179 949.906 744.627 975.225 744.627C1000.54 744.627 1021.07 765.179 1021.07 790.532ZM1021.07 516.86C1021.07 542.212 1000.54 562.765 975.225 562.765C949.906 562.765 929.381 542.212 929.381 516.86C929.381 491.507 949.906 470.954 975.225 470.954C1000.54 470.954 1021.07 491.507 1021.07 516.86ZM1021.07 1064.09C1021.07 1089.45 1000.54 1110 975.225 1110C949.906 1110 929.381 1089.45 929.381 1064.09C929.381 1038.74 949.906 1018.19 975.225 1018.19C1000.54 1018.19 1021.07 1038.74 1021.07 1064.09ZM126.399 37.9053C126.399 63.2581 105.874 83.8106 80.5548 83.8106C55.2359 83.8106 34.7109 63.2581 34.7109 37.9053C34.7109 12.5525 55.2359 -8 80.5548 -8C105.874 -8 126.399 12.5525 126.399 37.9053ZM126.399 585.14C126.399 610.493 105.874 631.046 80.5548 631.046C55.2359 631.046 34.7109 610.493 34.7109 585.14C34.7109 559.788 55.2359 539.235 80.5548 539.235C105.874 539.235 126.399 559.788 126.399 585.14ZM126.399 311.468C126.399 336.821 105.874 357.373 80.5548 357.373C55.2359 357.373 34.7109 336.821 34.7109 311.468C34.7109 286.115 55.2359 265.563 80.5548 265.563C105.874 265.563 126.399 286.115 126.399 311.468ZM126.399 858.648C126.399 883.97 105.874 904.498 80.5548 904.498C55.2359 904.498 34.7109 883.97 34.7109 858.648C34.7109 833.325 55.2359 812.798 80.5548 812.798C105.874 812.798 126.399 833.325 126.399 858.648ZM126.399 174.742C126.399 200.064 105.874 220.592 80.5548 220.592C55.2359 220.592 34.7109 200.064 34.7109 174.742C34.7109 149.419 55.2359 128.891 80.5548 128.891C105.874 128.891 126.399 149.419 126.399 174.742ZM126.399 721.977C126.399 747.299 105.874 767.827 80.5548 767.827C55.2359 767.827 34.7109 747.299 34.7109 721.977C34.7109 696.654 55.2359 676.126 80.5548 676.126C105.874 676.126 126.399 696.654 126.399 721.977ZM126.399 448.304C126.399 473.627 105.874 494.154 80.5548 494.154C55.2359 494.154 34.7109 473.627 34.7109 448.304C34.7109 422.982 55.2359 402.454 80.5548 402.454C105.874 402.454 126.399 422.982 126.399 448.304ZM126.399 995.484C126.399 1020.84 105.874 1041.39 80.5548 1041.39C55.2359 1041.39 34.7109 1020.84 34.7109 995.484C34.7109 970.131 55.2359 949.579 80.5548 949.579C105.874 949.579 126.399 970.131 126.399 995.484ZM126.399 106.406C126.399 131.759 105.874 152.311 80.5548 152.311C55.2359 152.311 34.7109 131.759 34.7109 106.406C34.7109 81.0531 55.2359 60.5006 80.5548 60.5006C105.874 60.5006 126.399 81.0531 126.399 106.406ZM126.399 653.586C126.399 678.908 105.874 699.436 80.5548 699.436C55.2359 699.436 34.7109 678.908 34.7109 653.586C34.7109 628.264 55.2359 607.736 80.5548 607.736C105.874 607.736 126.399 628.264 126.399 653.586ZM126.399 379.913C126.399 405.236 105.874 425.764 80.5548 425.764C55.2359 425.764 34.7109 405.236 34.7109 379.913C34.7109 354.591 55.2359 334.063 80.5548 334.063C105.874 334.063 126.399 354.591 126.399 379.913ZM126.399 927.148C126.399 952.471 105.874 972.999 80.5548 972.999C55.2359 972.999 34.7109 952.471 34.7109 927.148C34.7109 901.826 55.2359 881.298 80.5548 881.298C105.874 881.298 126.399 901.826 126.399 927.148ZM126.399 243.242C126.399 268.565 105.874 289.092 80.5548 289.092C55.2359 289.092 34.7109 268.565 34.7109 243.242C34.7109 217.92 55.2359 197.392 80.5548 197.392C105.874 197.392 126.399 217.92 126.399 243.242ZM126.399 790.422C126.399 815.775 105.874 836.328 80.5548 836.328C55.2359 836.328 34.7109 815.775 34.7109 790.422C34.7109 765.069 55.2359 744.517 80.5548 744.517C105.874 744.517 126.399 765.069 126.399 790.422ZM126.399 516.695C126.399 542.017 105.874 562.545 80.5548 562.545C55.2359 562.545 34.7109 542.017 34.7109 516.695C34.7109 491.372 55.2359 470.844 80.5548 470.844C105.874 470.844 126.399 491.372 126.399 516.695ZM126.399 1063.93C126.399 1089.25 105.874 1109.78 80.5548 1109.78C55.2359 1109.78 34.7109 1089.25 34.7109 1063.93C34.7109 1038.61 55.2359 1018.08 80.5548 1018.08C105.874 1018.08 126.399 1038.61 126.399 1063.93ZM676.965 37.9053C676.965 63.2581 656.465 83.8106 631.176 83.8106C605.888 83.8106 585.387 63.2581 585.387 37.9053C585.387 12.5525 605.888 -8 631.176 -8C656.465 -8 676.965 12.5525 676.965 37.9053ZM676.965 585.14C676.965 610.493 656.465 631.046 631.176 631.046C605.888 631.046 585.387 610.493 585.387 585.14C585.387 559.788 605.888 539.235 631.176 539.235C656.465 539.235 676.965 559.788 676.965 585.14ZM676.965 311.468C676.965 336.821 656.465 357.373 631.176 357.373C605.888 357.373 585.387 336.821 585.387 311.468C585.387 286.115 605.888 265.563 631.176 265.563C656.465 265.563 676.965 286.115 676.965 311.468ZM676.965 858.648C676.965 883.97 656.465 904.498 631.176 904.498C605.888 904.498 585.387 883.97 585.387 858.648C585.387 833.325 605.888 812.798 631.176 812.798C656.465 812.798 676.965 833.325 676.965 858.648ZM676.965 174.742C676.965 200.064 656.465 220.592 631.176 220.592C605.888 220.592 585.387 200.064 585.387 174.742C585.387 149.419 605.888 128.891 631.176 128.891C656.465 128.891 676.965 149.419 676.965 174.742ZM676.965 721.977C676.965 747.299 656.465 767.827 631.176 767.827C605.888 767.827 585.387 747.299 585.387 721.977C585.387 696.654 605.888 676.126 631.176 676.126C656.465 676.126 676.965 696.654 676.965 721.977ZM676.965 448.304C676.965 473.627 656.465 494.154 631.176 494.154C605.888 494.154 585.387 473.627 585.387 448.304C585.387 422.982 605.888 402.454 631.176 402.454C656.465 402.454 676.965 422.982 676.965 448.304ZM676.965 995.484C676.965 1020.84 656.465 1041.39 631.176 1041.39C605.888 1041.39 585.387 1020.84 585.387 995.484C585.387 970.131 605.888 949.579 631.176 949.579C656.465 949.579 676.965 970.131 676.965 995.484ZM676.965 106.406C676.965 131.759 656.465 152.311 631.176 152.311C605.888 152.311 585.387 131.759 585.387 106.406C585.387 81.0531 605.888 60.5006 631.176 60.5006C656.465 60.5006 676.965 81.0531 676.965 106.406ZM676.965 653.586C676.965 678.908 656.465 699.436 631.176 699.436C605.888 699.436 585.387 678.908 585.387 653.586C585.387 628.264 605.888 607.736 631.176 607.736C656.465 607.736 676.965 628.264 676.965 653.586ZM676.965 379.913C676.965 405.236 656.465 425.764 631.176 425.764C605.888 425.764 585.387 405.236 585.387 379.913C585.387 354.591 605.888 334.063 631.176 334.063C656.465 334.063 676.965 354.591 676.965 379.913ZM676.965 927.148C676.965 952.471 656.465 972.999 631.176 972.999C605.888 972.999 585.387 952.471 585.387 927.148C585.387 901.826 605.888 881.298 631.176 881.298C656.465 881.298 676.965 901.826 676.965 927.148ZM676.965 243.242C676.965 268.565 656.465 289.092 631.176 289.092C605.888 289.092 585.387 268.565 585.387 243.242C585.387 217.92 605.888 197.392 631.176 197.392C656.465 197.392 676.965 217.92 676.965 243.242ZM676.965 790.422C676.965 815.775 656.465 836.328 631.176 836.328C605.888 836.328 585.387 815.775 585.387 790.422C585.387 765.069 605.888 744.517 631.176 744.517C656.465 744.517 676.965 765.069 676.965 790.422ZM676.965 516.695C676.965 542.017 656.465 562.545 631.176 562.545C605.888 562.545 585.387 542.017 585.387 516.695C585.387 491.372 605.888 470.844 631.176 470.844C656.465 470.844 676.965 491.372 676.965 516.695ZM676.965 1063.93C676.965 1089.25 656.465 1109.78 631.176 1109.78C605.888 1109.78 585.387 1089.25 585.387 1063.93C585.387 1038.61 605.888 1018.08 631.176 1018.08C656.465 1018.08 676.965 1038.61 676.965 1063.93ZM401.682 38.0702C401.682 63.3927 381.182 83.9205 355.893 83.9205C330.604 83.9205 310.104 63.3927 310.104 38.0702C310.104 12.7478 330.604 -7.78009 355.893 -7.78009C381.182 -7.78009 401.682 12.7478 401.682 38.0702ZM401.682 585.305C401.682 610.628 381.182 631.156 355.893 631.156C330.604 631.156 310.104 610.628 310.104 585.305C310.104 559.983 330.604 539.455 355.893 539.455C381.182 539.455 401.682 559.983 401.682 585.305ZM401.682 311.578C401.682 336.931 381.182 357.483 355.893 357.483C330.604 357.483 310.104 336.931 310.104 311.578C310.104 286.225 330.604 265.672 355.893 265.672C381.182 265.672 401.682 286.225 401.682 311.578ZM401.682 858.758C401.682 884.08 381.182 904.608 355.893 904.608C330.604 904.608 310.104 884.08 310.104 858.758C310.104 833.435 330.604 812.908 355.893 812.908C381.182 812.908 401.682 833.435 401.682 858.758ZM401.682 174.852C401.682 200.174 381.182 220.702 355.893 220.702C330.604 220.702 310.104 200.174 310.104 174.852C310.104 149.529 330.604 129.001 355.893 129.001C381.182 129.001 401.682 149.529 401.682 174.852ZM401.682 722.087C401.682 747.409 381.182 767.937 355.893 767.937C330.604 767.937 310.104 747.409 310.104 722.087C310.104 696.764 330.604 676.236 355.893 676.236C381.182 676.236 401.682 696.764 401.682 722.087ZM401.682 448.414C401.682 473.736 381.182 494.264 355.893 494.264C330.604 494.264 310.104 473.736 310.104 448.414C310.104 423.092 330.604 402.564 355.893 402.564C381.182 402.564 401.682 423.092 401.682 448.414ZM401.682 995.594C401.682 1020.95 381.182 1041.5 355.893 1041.5C330.604 1041.5 310.104 1020.95 310.104 995.594C310.104 970.241 330.604 949.689 355.893 949.689C381.182 949.689 401.682 970.241 401.682 995.594ZM401.682 106.516C401.682 131.869 381.182 152.421 355.893 152.421C330.604 152.421 310.104 131.869 310.104 106.516C310.104 81.163 330.604 60.6105 355.893 60.6105C381.182 60.6105 401.682 81.163 401.682 106.516ZM401.682 653.696C401.682 679.018 381.182 699.546 355.893 699.546C330.604 699.546 310.104 679.018 310.104 653.696C310.104 628.373 330.604 607.846 355.893 607.846C381.182 607.846 401.682 628.373 401.682 653.696ZM401.682 380.023C401.682 405.346 381.182 425.874 355.893 425.874C330.604 425.874 310.104 405.346 310.104 380.023C310.104 354.701 330.604 334.173 355.893 334.173C381.182 334.173 401.682 354.701 401.682 380.023ZM401.682 927.258C401.682 952.581 381.182 973.109 355.893 973.109C330.604 973.109 310.104 952.581 310.104 927.258C310.104 901.936 330.604 881.408 355.893 881.408C381.182 881.408 401.682 901.936 401.682 927.258ZM401.682 243.352C401.682 268.675 381.182 289.202 355.893 289.202C330.604 289.202 310.104 268.675 310.104 243.352C310.104 218.03 330.604 197.502 355.893 197.502C381.182 197.502 401.682 218.03 401.682 243.352ZM401.682 790.532C401.682 815.885 381.182 836.437 355.893 836.437C330.604 836.437 310.104 815.885 310.104 790.532C310.104 765.179 330.604 744.627 355.893 744.627C381.182 744.627 401.682 765.179 401.682 790.532ZM401.682 516.86C401.682 542.212 381.182 562.765 355.893 562.765C330.604 562.765 310.104 542.212 310.104 516.86C310.104 491.507 330.604 470.954 355.893 470.954C381.182 470.954 401.682 491.507 401.682 516.86ZM401.682 1064.09C401.682 1089.45 381.182 1110 355.893 1110C330.604 1110 310.104 1089.45 310.104 1064.09C310.104 1038.74 330.604 1018.19 355.893 1018.19C381.182 1018.19 401.682 1038.74 401.682 1064.09ZM952.138 38.0702C952.138 63.3927 931.638 83.9205 906.35 83.9205C881.061 83.9205 860.561 63.3927 860.561 38.0702C860.561 12.7478 881.061 -7.78009 906.35 -7.78009C931.638 -7.78009 952.138 12.7478 952.138 38.0702ZM952.138 585.305C952.138 610.628 931.638 631.156 906.35 631.156C881.061 631.156 860.561 610.628 860.561 585.305C860.561 559.983 881.061 539.455 906.35 539.455C931.638 539.455 952.138 559.983 952.138 585.305ZM952.138 311.578C952.138 336.931 931.638 357.483 906.35 357.483C881.061 357.483 860.561 336.931 860.561 311.578C860.561 286.225 881.061 265.672 906.35 265.672C931.638 265.672 952.138 286.225 952.138 311.578ZM952.138 858.758C952.138 884.08 931.638 904.608 906.35 904.608C881.061 904.608 860.561 884.08 860.561 858.758C860.561 833.435 881.061 812.908 906.35 812.908C931.638 812.908 952.138 833.435 952.138 858.758ZM952.138 174.852C952.138 200.174 931.638 220.702 906.35 220.702C881.061 220.702 860.561 200.174 860.561 174.852C860.561 149.529 881.061 129.001 906.35 129.001C931.638 129.001 952.138 149.529 952.138 174.852ZM952.138 722.087C952.138 747.409 931.638 767.937 906.35 767.937C881.061 767.937 860.561 747.409 860.561 722.087C860.561 696.764 881.061 676.236 906.35 676.236C931.638 676.236 952.138 696.764 952.138 722.087ZM952.138 448.414C952.138 473.736 931.638 494.264 906.35 494.264C881.061 494.264 860.561 473.736 860.561 448.414C860.561 423.092 881.061 402.564 906.35 402.564C931.638 402.564 952.138 423.092 952.138 448.414ZM952.138 995.594C952.138 1020.95 931.638 1041.5 906.35 1041.5C881.061 1041.5 860.561 1020.95 860.561 995.594C860.561 970.241 881.061 949.689 906.35 949.689C931.638 949.689 952.138 970.241 952.138 995.594ZM952.138 106.516C952.138 131.869 931.638 152.421 906.35 152.421C881.061 152.421 860.561 131.869 860.561 106.516C860.561 81.163 881.061 60.6105 906.35 60.6105C931.638 60.6105 952.138 81.163 952.138 106.516ZM952.138 653.696C952.138 679.018 931.638 699.546 906.35 699.546C881.061 699.546 860.561 679.018 860.561 653.696C860.561 628.373 881.061 607.846 906.35 607.846C931.638 607.846 952.138 628.373 952.138 653.696ZM952.138 380.023C952.138 405.346 931.638 425.874 906.35 425.874C881.061 425.874 860.561 405.346 860.561 380.023C860.561 354.701 881.061 334.173 906.35 334.173C931.638 334.173 952.138 354.701 952.138 380.023ZM952.138 927.258C952.138 952.581 931.638 973.109 906.35 973.109C881.061 973.109 860.561 952.581 860.561 927.258C860.561 901.936 881.061 881.408 906.35 881.408C931.638 881.408 952.138 901.936 952.138 927.258ZM952.138 243.352C952.138 268.675 931.638 289.202 906.35 289.202C881.061 289.202 860.561 268.675 860.561 243.352C860.561 218.03 881.061 197.502 906.35 197.502C931.638 197.502 952.138 218.03 952.138 243.352ZM952.138 790.532C952.138 815.885 931.638 836.437 906.35 836.437C881.061 836.437 860.561 815.885 860.561 790.532C860.561 765.179 881.061 744.627 906.35 744.627C931.638 744.627 952.138 765.179 952.138 790.532ZM952.138 516.86C952.138 542.212 931.638 562.765 906.35 562.765C881.061 562.765 860.561 542.212 860.561 516.86C860.561 491.507 881.061 470.954 906.35 470.954C931.638 470.954 952.138 491.507 952.138 516.86ZM952.138 1064.09C952.138 1089.45 931.638 1110 906.35 1110C881.061 1110 860.561 1089.45 860.561 1064.09C860.561 1038.74 881.061 1018.19 906.35 1018.19C931.638 1018.19 952.138 1038.74 952.138 1064.09ZM264.15 37.9053C264.15 63.2581 243.625 83.8106 218.306 83.8106C192.987 83.8106 172.462 63.2581 172.462 37.9053C172.462 12.5525 192.987 -8 218.306 -8C243.625 -8 264.15 12.5525 264.15 37.9053ZM264.15 585.14C264.15 610.493 243.625 631.046 218.306 631.046C192.987 631.046 172.462 610.493 172.462 585.14C172.462 559.788 192.987 539.235 218.306 539.235C243.625 539.235 264.15 559.788 264.15 585.14ZM264.15 311.468C264.15 336.821 243.625 357.373 218.306 357.373C192.987 357.373 172.462 336.821 172.462 311.468C172.462 286.115 192.987 265.563 218.306 265.563C243.625 265.563 264.15 286.115 264.15 311.468ZM264.15 858.648C264.15 883.97 243.625 904.498 218.306 904.498C192.987 904.498 172.462 883.97 172.462 858.648C172.462 833.325 192.987 812.798 218.306 812.798C243.625 812.798 264.15 833.325 264.15 858.648ZM264.15 174.742C264.15 200.064 243.625 220.592 218.306 220.592C192.987 220.592 172.462 200.064 172.462 174.742C172.462 149.419 192.987 128.891 218.306 128.891C243.625 128.891 264.15 149.419 264.15 174.742ZM264.15 721.977C264.15 747.299 243.625 767.827 218.306 767.827C192.987 767.827 172.462 747.299 172.462 721.977C172.462 696.654 192.987 676.126 218.306 676.126C243.625 676.126 264.15 696.654 264.15 721.977ZM264.15 448.304C264.15 473.627 243.625 494.154 218.306 494.154C192.987 494.154 172.462 473.627 172.462 448.304C172.462 422.982 192.987 402.454 218.306 402.454C243.625 402.454 264.15 422.982 264.15 448.304ZM264.15 995.484C264.15 1020.84 243.625 1041.39 218.306 1041.39C192.987 1041.39 172.462 1020.84 172.462 995.484C172.462 970.131 192.987 949.579 218.306 949.579C243.625 949.579 264.15 970.131 264.15 995.484ZM264.15 106.406C264.15 131.759 243.625 152.311 218.306 152.311C192.987 152.311 172.462 131.759 172.462 106.406C172.462 81.0531 192.987 60.5006 218.306 60.5006C243.625 60.5006 264.15 81.0531 264.15 106.406ZM264.15 653.586C264.15 678.908 243.625 699.436 218.306 699.436C192.987 699.436 172.462 678.908 172.462 653.586C172.462 628.264 192.987 607.736 218.306 607.736C243.625 607.736 264.15 628.264 264.15 653.586ZM264.15 379.913C264.15 405.236 243.625 425.764 218.306 425.764C192.987 425.764 172.462 405.236 172.462 379.913C172.462 354.591 192.987 334.063 218.306 334.063C243.625 334.063 264.15 354.591 264.15 379.913ZM264.15 927.148C264.15 952.471 243.625 972.999 218.306 972.999C192.987 972.999 172.462 952.471 172.462 927.148C172.462 901.826 192.987 881.298 218.306 881.298C243.625 881.298 264.15 901.826 264.15 927.148ZM264.15 243.242C264.15 268.565 243.625 289.092 218.306 289.092C192.987 289.092 172.462 268.565 172.462 243.242C172.462 217.92 192.987 197.392 218.306 197.392C243.625 197.392 264.15 217.92 264.15 243.242ZM264.15 790.422C264.15 815.775 243.625 836.328 218.306 836.328C192.987 836.328 172.462 815.775 172.462 790.422C172.462 765.069 192.987 744.517 218.306 744.517C243.625 744.517 264.15 765.069 264.15 790.422ZM264.15 516.695C264.15 542.017 243.625 562.545 218.306 562.545C192.987 562.545 172.462 542.017 172.462 516.695C172.462 491.372 192.987 470.844 218.306 470.844C243.625 470.844 264.15 491.372 264.15 516.695ZM264.15 1063.93C264.15 1089.25 243.625 1109.78 218.306 1109.78C192.987 1109.78 172.462 1089.25 172.462 1063.93C172.462 1038.61 192.987 1018.08 218.306 1018.08C243.625 1018.08 264.15 1038.61 264.15 1063.93ZM814.607 37.9053C814.607 63.2581 794.131 83.8106 768.873 83.8106C743.615 83.8106 723.139 63.2581 723.139 37.9053C723.139 12.5525 743.615 -8 768.873 -8C794.131 -8 814.607 12.5525 814.607 37.9053ZM814.607 585.14C814.607 610.493 794.131 631.046 768.873 631.046C743.615 631.046 723.139 610.493 723.139 585.14C723.139 559.788 743.615 539.235 768.873 539.235C794.131 539.235 814.607 559.788 814.607 585.14ZM814.607 311.468C814.607 336.821 794.131 357.373 768.873 357.373C743.615 357.373 723.139 336.821 723.139 311.468C723.139 286.115 743.615 265.563 768.873 265.563C794.131 265.563 814.607 286.115 814.607 311.468ZM814.607 858.648C814.607 883.97 794.131 904.498 768.873 904.498C743.615 904.498 723.139 883.97 723.139 858.648C723.139 833.325 743.615 812.798 768.873 812.798C794.131 812.798 814.607 833.325 814.607 858.648ZM814.607 174.742C814.607 200.064 794.131 220.592 768.873 220.592C743.615 220.592 723.139 200.064 723.139 174.742C723.139 149.419 743.615 128.891 768.873 128.891C794.131 128.891 814.607 149.419 814.607 174.742ZM814.607 721.977C814.607 747.299 794.131 767.827 768.873 767.827C743.615 767.827 723.139 747.299 723.139 721.977C723.139 696.654 743.615 676.126 768.873 676.126C794.131 676.126 814.607 696.654 814.607 721.977ZM814.607 448.304C814.607 473.627 794.131 494.154 768.873 494.154C743.615 494.154 723.139 473.627 723.139 448.304C723.139 422.982 743.615 402.454 768.873 402.454C794.131 402.454 814.607 422.982 814.607 448.304ZM814.607 995.484C814.607 1020.84 794.131 1041.39 768.873 1041.39C743.615 1041.39 723.139 1020.84 723.139 995.484C723.139 970.131 743.615 949.579 768.873 949.579C794.131 949.579 814.607 970.131 814.607 995.484ZM814.607 106.406C814.607 131.759 794.131 152.311 768.873 152.311C743.615 152.311 723.139 131.759 723.139 106.406C723.139 81.0531 743.615 60.5006 768.873 60.5006C794.131 60.5006 814.607 81.0531 814.607 106.406ZM814.607 653.586C814.607 678.908 794.131 699.436 768.873 699.436C743.615 699.436 723.139 678.908 723.139 653.586C723.139 628.264 743.615 607.736 768.873 607.736C794.131 607.736 814.607 628.264 814.607 653.586ZM814.607 379.913C814.607 405.236 794.131 425.764 768.873 425.764C743.615 425.764 723.139 405.236 723.139 379.913C723.139 354.591 743.615 334.063 768.873 334.063C794.131 334.063 814.607 354.591 814.607 379.913ZM814.607 927.148C814.607 952.471 794.131 972.999 768.873 972.999C743.615 972.999 723.139 952.471 723.139 927.148C723.139 901.826 743.615 881.298 768.873 881.298C794.131 881.298 814.607 901.826 814.607 927.148ZM814.607 243.242C814.607 268.565 794.131 289.092 768.873 289.092C743.615 289.092 723.139 268.565 723.139 243.242C723.139 217.92 743.615 197.392 768.873 197.392C794.131 197.392 814.607 217.92 814.607 243.242ZM814.607 790.422C814.607 815.775 794.131 836.328 768.873 836.328C743.615 836.328 723.139 815.775 723.139 790.422C723.139 765.069 743.615 744.517 768.873 744.517C794.131 744.517 814.607 765.069 814.607 790.422ZM814.607 516.695C814.607 542.017 794.131 562.545 768.873 562.545C743.615 562.545 723.139 542.017 723.139 516.695C723.139 491.372 743.615 470.844 768.873 470.844C794.131 470.844 814.607 491.372 814.607 516.695ZM814.607 1063.93C814.607 1089.25 794.131 1109.78 768.873 1109.78C743.615 1109.78 723.139 1089.25 723.139 1063.93C723.139 1038.61 743.615 1018.08 768.873 1018.08C794.131 1018.08 814.607 1038.61 814.607 1063.93ZM539.543 38.0702C539.543 63.3927 519.018 83.9205 493.7 83.9205C468.381 83.9205 447.856 63.3927 447.856 38.0702C447.856 12.7478 468.381 -7.78009 493.7 -7.78009C519.018 -7.78009 539.543 12.7478 539.543 38.0702ZM539.543 585.305C539.543 610.628 519.018 631.156 493.7 631.156C468.381 631.156 447.856 610.628 447.856 585.305C447.856 559.983 468.381 539.455 493.7 539.455C519.018 539.455 539.543 559.983 539.543 585.305ZM539.543 311.578C539.543 336.931 519.018 357.483 493.7 357.483C468.381 357.483 447.856 336.931 447.856 311.578C447.856 286.225 468.381 265.672 493.7 265.672C519.018 265.672 539.543 286.225 539.543 311.578ZM539.543 858.758C539.543 884.08 519.018 904.608 493.7 904.608C468.381 904.608 447.856 884.08 447.856 858.758C447.856 833.435 468.381 812.908 493.7 812.908C519.018 812.908 539.543 833.435 539.543 858.758ZM539.543 174.852C539.543 200.174 519.018 220.702 493.7 220.702C468.381 220.702 447.856 200.174 447.856 174.852C447.856 149.529 468.381 129.001 493.7 129.001C519.018 129.001 539.543 149.529 539.543 174.852ZM539.543 722.087C539.543 747.409 519.018 767.937 493.7 767.937C468.381 767.937 447.856 747.409 447.856 722.087C447.856 696.764 468.381 676.236 493.7 676.236C519.018 676.236 539.543 696.764 539.543 722.087ZM539.543 448.414C539.543 473.736 519.018 494.264 493.7 494.264C468.381 494.264 447.856 473.736 447.856 448.414C447.856 423.092 468.381 402.564 493.7 402.564C519.018 402.564 539.543 423.092 539.543 448.414ZM539.543 995.594C539.543 1020.95 519.018 1041.5 493.7 1041.5C468.381 1041.5 447.856 1020.95 447.856 995.594C447.856 970.241 468.381 949.689 493.7 949.689C519.018 949.689 539.543 970.241 539.543 995.594ZM539.543 106.516C539.543 131.869 519.018 152.421 493.7 152.421C468.381 152.421 447.856 131.869 447.856 106.516C447.856 81.163 468.381 60.6105 493.7 60.6105C519.018 60.6105 539.543 81.163 539.543 106.516ZM539.543 653.696C539.543 679.018 519.018 699.546 493.7 699.546C468.381 699.546 447.856 679.018 447.856 653.696C447.856 628.373 468.381 607.846 493.7 607.846C519.018 607.846 539.543 628.373 539.543 653.696ZM539.543 380.023C539.543 405.346 519.018 425.874 493.7 425.874C468.381 425.874 447.856 405.346 447.856 380.023C447.856 354.701 468.381 334.173 493.7 334.173C519.018 334.173 539.543 354.701 539.543 380.023ZM539.543 927.258C539.543 952.581 519.018 973.109 493.7 973.109C468.381 973.109 447.856 952.581 447.856 927.258C447.856 901.936 468.381 881.408 493.7 881.408C519.018 881.408 539.543 901.936 539.543 927.258ZM539.543 243.352C539.543 268.675 519.018 289.202 493.7 289.202C468.381 289.202 447.856 268.675 447.856 243.352C447.856 218.03 468.381 197.502 493.7 197.502C519.018 197.502 539.543 218.03 539.543 243.352ZM539.543 790.532C539.543 815.885 519.018 836.437 493.7 836.437C468.381 836.437 447.856 815.885 447.856 790.532C447.856 765.179 468.381 744.627 493.7 744.627C519.018 744.627 539.543 765.179 539.543 790.532ZM539.543 516.86C539.543 542.212 519.018 562.765 493.7 562.765C468.381 562.765 447.856 542.212 447.856 516.86C447.856 491.507 468.381 470.954 493.7 470.954C519.018 470.954 539.543 491.507 539.543 516.86ZM539.543 1064.09C539.543 1089.45 519.018 1110 493.7 1110C468.381 1110 447.856 1089.45 447.856 1064.09C447.856 1038.74 468.381 1018.19 493.7 1018.19C519.018 1018.19 539.543 1038.74 539.543 1064.09ZM1090 38.0702C1090 63.3927 1069.5 83.9205 1044.21 83.9205C1018.92 83.9205 998.422 63.3927 998.422 38.0702C998.422 12.7478 1018.92 -7.78009 1044.21 -7.78009C1069.5 -7.78009 1090 12.7478 1090 38.0702ZM1090 585.305C1090 610.628 1069.5 631.156 1044.21 631.156C1018.92 631.156 998.422 610.628 998.422 585.305C998.422 559.983 1018.92 539.455 1044.21 539.455C1069.5 539.455 1090 559.983 1090 585.305ZM1090 311.578C1090 336.931 1069.5 357.483 1044.21 357.483C1018.92 357.483 998.422 336.931 998.422 311.578C998.422 286.225 1018.92 265.672 1044.21 265.672C1069.5 265.672 1090 286.225 1090 311.578ZM1090 858.758C1090 884.08 1069.5 904.608 1044.21 904.608C1018.92 904.608 998.422 884.08 998.422 858.758C998.422 833.435 1018.92 812.908 1044.21 812.908C1069.5 812.908 1090 833.435 1090 858.758ZM1090 174.852C1090 200.174 1069.5 220.702 1044.21 220.702C1018.92 220.702 998.422 200.174 998.422 174.852C998.422 149.529 1018.92 129.001 1044.21 129.001C1069.5 129.001 1090 149.529 1090 174.852ZM1090 722.087C1090 747.409 1069.5 767.937 1044.21 767.937C1018.92 767.937 998.422 747.409 998.422 722.087C998.422 696.764 1018.92 676.236 1044.21 676.236C1069.5 676.236 1090 696.764 1090 722.087ZM1090 448.414C1090 473.736 1069.5 494.264 1044.21 494.264C1018.92 494.264 998.422 473.736 998.422 448.414C998.422 423.092 1018.92 402.564 1044.21 402.564C1069.5 402.564 1090 423.092 1090 448.414ZM1090 995.594C1090 1020.95 1069.5 1041.5 1044.21 1041.5C1018.92 1041.5 998.422 1020.95 998.422 995.594C998.422 970.241 1018.92 949.689 1044.21 949.689C1069.5 949.689 1090 970.241 1090 995.594ZM1090 106.516C1090 131.869 1069.5 152.421 1044.21 152.421C1018.92 152.421 998.422 131.869 998.422 106.516C998.422 81.163 1018.92 60.6105 1044.21 60.6105C1069.5 60.6105 1090 81.163 1090 106.516ZM1090 653.696C1090 679.018 1069.5 699.546 1044.21 699.546C1018.92 699.546 998.422 679.018 998.422 653.696C998.422 628.373 1018.92 607.846 1044.21 607.846C1069.5 607.846 1090 628.373 1090 653.696ZM1090 380.023C1090 405.346 1069.5 425.874 1044.21 425.874C1018.92 425.874 998.422 405.346 998.422 380.023C998.422 354.701 1018.92 334.173 1044.21 334.173C1069.5 334.173 1090 354.701 1090 380.023ZM1090 927.258C1090 952.581 1069.5 973.109 1044.21 973.109C1018.92 973.109 998.422 952.581 998.422 927.258C998.422 901.936 1018.92 881.408 1044.21 881.408C1069.5 881.408 1090 901.936 1090 927.258ZM1090 243.352C1090 268.675 1069.5 289.202 1044.21 289.202C1018.92 289.202 998.422 268.675 998.422 243.352C998.422 218.03 1018.92 197.502 1044.21 197.502C1069.5 197.502 1090 218.03 1090 243.352ZM1090 790.532C1090 815.885 1069.5 836.437 1044.21 836.437C1018.92 836.437 998.422 815.885 998.422 790.532C998.422 765.179 1018.92 744.627 1044.21 744.627C1069.5 744.627 1090 765.179 1090 790.532ZM1090 516.86C1090 542.212 1069.5 562.765 1044.21 562.765C1018.92 562.765 998.422 542.212 998.422 516.86C998.422 491.507 1018.92 470.954 1044.21 470.954C1069.5 470.954 1090 491.507 1090 516.86ZM1090 1064.09C1090 1089.45 1069.5 1110 1044.21 1110C1018.92 1110 998.422 1089.45 998.422 1064.09C998.422 1038.74 1018.92 1018.19 1044.21 1018.19C1069.5 1018.19 1090 1038.74 1090 1064.09Z" stroke="url(#paint0_linear_22_870)"/>
</g>
<defs>
<linearGradient id="paint0_linear_22_870" x1="528" y1="-8" x2="528" y2="1110" gradientUnits="userSpaceOnUse">
<stop stop-color="#BED5FA"/>
<stop offset="1" stop-color="#C5D3EA"/>
</linearGradient>
</defs>
</svg>
