<svg width="70" height="69" viewBox="0 0 70 69" fill="none" xmlns="http://www.w3.org/2000/svg">
<path d="M69.6845 34.4468C69.6845 43.5697 66.0605 52.3189 59.6096 58.7698C53.1588 65.2206 44.4095 68.8447 35.2866 68.8447C26.1637 68.8447 17.4145 65.2206 10.9636 58.7698C4.51273 52.3189 0.888672 43.5697 0.888672 34.4468C0.888672 25.3239 4.51273 16.5746 10.9636 10.1237C17.4145 3.67289 26.1637 0.0488281 35.2866 0.0488281C44.4095 0.0488281 53.1588 3.67289 59.6096 10.1237C66.0605 16.5746 69.6845 25.3239 69.6845 34.4468ZM30.0839 21.9474C29.7625 21.7185 29.3842 21.5825 28.9906 21.5544C28.597 21.5262 28.2032 21.6068 27.8524 21.7876C27.5016 21.9683 27.2073 22.2421 27.0018 22.579C26.7962 22.9158 26.6874 23.3028 26.6871 23.6974V45.1961C26.6874 45.5907 26.7962 45.9777 27.0018 46.3145C27.2073 46.6514 27.5016 46.9252 27.8524 47.1059C28.2032 47.2867 28.597 47.3674 28.9906 47.3392C29.3842 47.311 29.7625 47.175 30.0839 46.9461L45.133 36.1968C45.4117 35.9979 45.6389 35.7353 45.7956 35.4309C45.9523 35.1265 46.0341 34.7891 46.0341 34.4468C46.0341 34.1044 45.9523 33.767 45.7956 33.4626C45.6389 33.1582 45.4117 32.8956 45.133 32.6968L30.0839 21.9474Z" fill="#FF9257"/>
</svg>
