<svg width="34" height="34" viewBox="0 0 34 34" fill="none" xmlns="http://www.w3.org/2000/svg">
<path d="M15.6178 3.06332C16.1163 1.76731 16.3655 1.11931 16.7253 0.93133C17.0371 0.768405 17.409 0.768405 17.7208 0.931329C18.0806 1.11931 18.3299 1.76731 18.8283 3.06332L20.9319 8.53263C21.4518 9.88427 21.7117 10.5601 22.1159 11.1285C22.4741 11.6324 22.9143 12.0726 23.4182 12.4308C23.9866 12.835 24.6624 13.0949 26.0141 13.6148L31.4834 15.7184C32.7794 16.2169 33.4274 16.4661 33.6154 16.8259C33.7783 17.1377 33.7783 17.5096 33.6154 17.8214C33.4274 18.1812 32.7794 18.4304 31.4834 18.9289L26.0141 21.0325C24.6624 21.5523 23.9866 21.8123 23.4182 22.2165C22.9143 22.5747 22.4741 23.0149 22.1159 23.5187C21.7117 24.0872 21.4518 24.763 20.9319 26.1147L18.8283 31.584C18.3299 32.88 18.0806 33.528 17.7208 33.716C17.409 33.8789 17.0371 33.8789 16.7253 33.716C16.3655 33.528 16.1163 32.88 15.6178 31.584L13.5142 26.1147C12.9944 24.763 12.7344 24.0872 12.3302 23.5187C11.972 23.0149 11.5318 22.5747 11.028 22.2165C10.4595 21.8123 9.78368 21.5523 8.43205 21.0325L2.96273 18.9289C1.66672 18.4304 1.01872 18.1812 0.830743 17.8214C0.667819 17.5096 0.667819 17.1377 0.830744 16.8259C1.01872 16.4661 1.66672 16.2169 2.96273 15.7184L8.43204 13.6148C9.78368 13.0949 10.4595 12.835 11.028 12.4308C11.5318 12.0726 11.972 11.6324 12.3302 11.1285C12.7344 10.5601 12.9944 9.88426 13.5142 8.53263L15.6178 3.06332Z" fill="white"/>
</svg>
